<svg width="500" height="120" viewBox="0 0 500 120" fill="none" xmlns="http://www.w3.org/2000/svg">
<path d="M74.6388 9.27528C71.7271 9.99157 69.6001 12.704 67.5822 14.7203C64.2373 18.0625 60.9232 21.4315 57.5925 24.788C56.2825 26.1081 54.6518 27.3251 53.531 28.8065C51.9188 30.9375 53.2939 33.8214 55.8969 34.1043C57.8325 34.3147 60.9589 34.5633 62.7727 33.8234C64.6224 33.0689 66.2188 30.8923 67.5927 29.5111C69.928 27.1633 72.2982 24.8513 74.6726 22.5421C75.8623 21.3851 76.9231 20.0679 78.2944 19.1118C79.7126 18.123 81.7643 18.494 83.4022 18.494H94.0538C95.6394 18.494 97.6794 18.1463 99.1389 18.8694C100.984 19.7834 102.284 21.7813 103.754 23.1677C107.581 26.7754 111.115 30.6986 114.965 34.2854C116.203 35.439 117.455 36.56 118.548 37.8629C118.971 38.3668 119.552 38.8921 119.298 39.6151C118.691 41.3438 116.425 42.8172 115.175 44.1064C112.071 47.3094 108.921 50.5223 105.693 53.6002C104.211 55.0125 101.762 56.7628 100.959 58.657C99.6555 61.7309 105.261 64.4821 107.672 64.2612C111.224 63.9356 113.502 60.953 115.806 58.5272C120.559 53.521 125.95 49.0219 130.492 43.8281C132.018 42.0832 132.413 39.3724 131.552 37.2504C130.767 35.3181 129.108 33.9463 127.671 32.5104C125.295 30.1347 122.906 27.7703 120.538 25.3865C117.335 22.1633 113.994 19.0861 110.773 15.8883C108.519 13.6505 106.427 11.0478 103.537 9.61565C101.38 8.54657 97.8985 9.19459 95.537 9.19459H81.3798C79.2846 9.19459 76.6737 8.7747 74.6388 9.27528ZM42.4139 37.3076C39.5854 37.9494 38.0004 39.4109 35.9945 41.4055C33.4305 43.955 31.2707 46.7225 33.1031 50.4334C34.3754 53.0099 37.3808 55.1279 39.4422 57.0836C43.6597 61.0849 47.8337 65.1968 51.9419 69.3036C54.1377 71.4987 56.682 74.8856 59.695 75.9131C61.0759 76.3839 62.6832 76.1771 64.1215 76.1771H72.3462H80.0315C81.258 76.1771 82.7366 76.3917 83.8499 75.755C85.0397 75.0745 85.0681 73.4921 84.499 72.4155C83.9506 71.3782 82.9619 70.6277 82.1227 69.8408C80.9844 68.7734 80.2064 67.6406 78.6832 67.0695C77.5576 66.6474 76.0957 66.8777 74.908 66.8777H67.4923C66.3628 66.8777 64.9718 67.0963 63.8749 66.8157C62.4853 66.4603 60.7132 64.3671 59.7171 63.3736C56.9681 60.6318 54.0101 58.1209 51.2248 55.4221C49.4075 53.6611 47.3121 52.0012 45.6466 50.096C45.0849 49.4535 44.6304 48.3596 45.2189 47.5734C46.0958 46.4019 47.7439 46.5269 49.0206 46.5269H58.5935H87.0427H94.0538C95.6669 46.5269 97.2449 46.6508 98.6764 45.7585C102.601 43.3125 100.612 37.7606 96.3339 37.2449C92.6764 36.804 88.7067 37.2275 85.0202 37.2275H62.0991H48.8857C46.8497 37.2275 44.4 36.8569 42.4139 37.3076ZM71.8069 50.516C70.1853 50.9129 69.491 52.4001 70.122 53.9389C70.8064 55.6079 72.5245 56.9514 73.8986 58.0676C79.0458 62.2488 83.8927 66.9813 88.796 71.4741C91.1946 73.6719 93.5624 76.2751 96.1868 78.1881C98.1518 79.6204 100.018 81.6443 101.739 83.365C102.423 84.0484 103.146 84.9341 102.44 85.9131C101.302 87.492 99.5127 88.8681 98.0968 90.2061C95.8098 92.3673 93.5411 94.5706 91.3123 96.7975C89.5752 98.533 87.6375 101.271 85.2899 102.152C83.8687 102.685 81.8071 102.323 80.3012 102.323C76.9245 102.323 73.2671 102.726 69.9192 102.305C67.9407 102.056 66.4683 99.6688 64.7952 98.7313C62.6554 97.5323 58.8358 98.28 56.4362 98.28C55.4629 98.28 54.3248 98.1019 53.4759 98.6802C52.0879 99.6258 52.819 101.359 53.774 102.276C56.5123 104.905 59.5649 107.498 62.5734 109.81C65.0401 111.706 68.0802 111.353 70.9979 111.353H84.0764C86.1567 111.353 88.4961 111.654 90.5482 111.318C94.1054 110.736 96.4134 107.848 98.8114 105.411C103.254 100.895 108.035 96.6855 112.344 92.048C114.173 90.0799 117.862 87.7043 117.344 84.5331C116.869 81.6189 114.528 80.1245 112.403 78.3652C110.479 76.7721 108.675 75.0253 106.724 73.4587C100.691 68.6134 95.0487 63.0989 89.3019 57.8928C87.6973 56.4392 86.0816 54.9918 84.4813 53.5347C83.4643 52.6087 82.4891 51.4795 81.2397 50.8578C79.4351 49.96 76.7362 50.4353 74.7731 50.4353C73.8237 50.4353 72.7335 50.2892 71.8069 50.516ZM26.7789 50.7693C24.8825 51.169 22.9011 53.8995 21.6635 55.2892C18.759 58.5504 11.5447 62.8948 14.8479 68.1068C16.7565 71.1183 20.3497 73.5179 23.0639 75.7746C27.8696 79.7703 32.3348 84.1797 37.1116 88.2096C39.9911 90.6388 42.6545 93.9878 46.3812 95.0844C48.1725 95.6115 50.6594 95.1802 52.5262 95.1802H65.6047H76.5259C78.2321 95.1802 80.2413 95.5147 81.7823 94.6656C85.1556 92.807 84.2664 87.8105 80.7056 86.7876C78.6569 86.1991 75.8259 86.6894 73.6945 86.6894H58.4587C56.013 86.6894 52.7217 87.2768 50.4774 86.1761C48.035 84.9783 45.8932 82.2828 43.8851 80.4743C40.1842 77.1413 36.4063 73.8917 32.711 70.5395C31.5012 69.442 30.259 68.3722 29.009 67.3217C28.3066 66.7314 27.4488 66.1102 27.3309 65.1257C27.1657 63.7456 28.4146 62.9765 29.3179 62.1743C30.7571 60.896 32.956 58.9726 33.0983 56.9045C33.2021 55.3976 32.3002 54.4268 31.3951 53.3585C30.0455 51.7657 29.1522 50.2692 26.7789 50.7693Z" fill="#2563EB"/>
<path opacity="0.75" d="M145.233 74V63.8182H148.673C149.472 63.8182 150.125 63.9624 150.632 64.2507C151.143 64.5357 151.52 64.9219 151.766 65.4091C152.011 65.8963 152.134 66.4399 152.134 67.0398C152.134 67.6397 152.011 68.1849 151.766 68.6754C151.524 69.166 151.149 69.5571 150.642 69.8487C150.135 70.1371 149.485 70.2812 148.693 70.2812H146.227V69.1875H148.653C149.2 69.1875 149.639 69.093 149.971 68.9041C150.302 68.7152 150.543 68.46 150.692 68.1385C150.844 67.8137 150.92 67.4474 150.92 67.0398C150.92 66.6321 150.844 66.2675 150.692 65.946C150.543 65.6245 150.301 65.3726 149.966 65.1903C149.631 65.0047 149.187 64.9119 148.634 64.9119H146.466V74H145.233ZM156.981 74.1591C156.291 74.1591 155.687 73.995 155.166 73.6669C154.649 73.3388 154.245 72.8797 153.953 72.2898C153.665 71.6998 153.521 71.0104 153.521 70.2216C153.521 69.4261 153.665 68.7318 153.953 68.1385C154.245 67.5452 154.649 67.0845 155.166 66.7564C155.687 66.4283 156.291 66.2642 156.981 66.2642C157.67 66.2642 158.273 66.4283 158.79 66.7564C159.311 67.0845 159.715 67.5452 160.004 68.1385C160.295 68.7318 160.441 69.4261 160.441 70.2216C160.441 71.0104 160.295 71.6998 160.004 72.2898C159.715 72.8797 159.311 73.3388 158.79 73.6669C158.273 73.995 157.67 74.1591 156.981 74.1591ZM156.981 73.1051C157.504 73.1051 157.935 72.9709 158.273 72.7024C158.612 72.4339 158.862 72.081 159.024 71.6435C159.187 71.206 159.268 70.732 159.268 70.2216C159.268 69.7112 159.187 69.2356 159.024 68.7947C158.862 68.3539 158.612 67.9976 158.273 67.7259C157.935 67.4541 157.504 67.3182 156.981 67.3182C156.457 67.3182 156.026 67.4541 155.688 67.7259C155.35 67.9976 155.1 68.3539 154.938 68.7947C154.775 69.2356 154.694 69.7112 154.694 70.2216C154.694 70.732 154.775 71.206 154.938 71.6435C155.1 72.081 155.35 72.4339 155.688 72.7024C156.026 72.9709 156.457 73.1051 156.981 73.1051ZM163.702 74L161.376 66.3636H162.609L164.259 72.2102H164.339L165.969 66.3636H167.222L168.833 72.1903H168.913L170.563 66.3636H171.796L169.469 74H168.316L166.646 68.1335H166.526L164.856 74H163.702ZM176.289 74.1591C175.553 74.1591 174.919 73.9967 174.385 73.6719C173.855 73.3438 173.445 72.8864 173.157 72.2997C172.872 71.7098 172.73 71.0237 172.73 70.2415C172.73 69.4593 172.872 68.7699 173.157 68.1733C173.445 67.5734 173.847 67.1061 174.36 66.7713C174.877 66.4332 175.481 66.2642 176.17 66.2642C176.568 66.2642 176.96 66.3305 177.348 66.4631C177.736 66.5956 178.089 66.8111 178.407 67.1094C178.725 67.4044 178.979 67.7955 179.168 68.2827C179.357 68.7699 179.451 69.3698 179.451 70.0824V70.5795H173.565V69.5653H178.258C178.258 69.1345 178.172 68.75 177.999 68.4119C177.83 68.0739 177.588 67.8071 177.274 67.6115C176.962 67.416 176.594 67.3182 176.17 67.3182C175.703 67.3182 175.298 67.4342 174.957 67.6662C174.619 67.8949 174.359 68.1932 174.176 68.5611C173.994 68.929 173.903 69.3234 173.903 69.7443V70.4205C173.903 70.9972 174.002 71.486 174.201 71.8871C174.403 72.2848 174.683 72.5881 175.041 72.7969C175.399 73.0024 175.815 73.1051 176.289 73.1051C176.597 73.1051 176.876 73.062 177.124 72.9759C177.376 72.8864 177.593 72.7538 177.776 72.5781C177.958 72.3991 178.099 72.1771 178.198 71.9119L179.332 72.2301C179.213 72.6146 179.012 72.9527 178.73 73.2443C178.449 73.5327 178.101 73.758 177.686 73.9205C177.272 74.0795 176.806 74.1591 176.289 74.1591ZM181.236 74V66.3636H182.369V67.517H182.449C182.588 67.1392 182.84 66.8326 183.205 66.5973C183.569 66.362 183.98 66.2443 184.438 66.2443C184.524 66.2443 184.632 66.246 184.761 66.2493C184.89 66.2526 184.988 66.2576 185.054 66.2642V67.4574C185.014 67.4474 184.923 67.4325 184.781 67.4126C184.642 67.3894 184.494 67.3778 184.338 67.3778C183.967 67.3778 183.636 67.4557 183.344 67.6115C183.056 67.764 182.827 67.9761 182.658 68.2479C182.492 68.5163 182.409 68.8229 182.409 69.1676V74H181.236ZM189.414 74.1591C188.678 74.1591 188.044 73.9967 187.51 73.6719C186.98 73.3438 186.57 72.8864 186.282 72.2997C185.997 71.7098 185.855 71.0237 185.855 70.2415C185.855 69.4593 185.997 68.7699 186.282 68.1733C186.57 67.5734 186.972 67.1061 187.485 66.7713C188.002 66.4332 188.606 66.2642 189.295 66.2642C189.693 66.2642 190.085 66.3305 190.473 66.4631C190.861 66.5956 191.214 66.8111 191.532 67.1094C191.85 67.4044 192.104 67.7955 192.293 68.2827C192.482 68.7699 192.576 69.3698 192.576 70.0824V70.5795H186.69V69.5653H191.383C191.383 69.1345 191.297 68.75 191.124 68.4119C190.955 68.0739 190.713 67.8071 190.399 67.6115C190.087 67.416 189.719 67.3182 189.295 67.3182C188.828 67.3182 188.423 67.4342 188.082 67.6662C187.744 67.8949 187.484 68.1932 187.301 68.5611C187.119 68.929 187.028 69.3234 187.028 69.7443V70.4205C187.028 70.9972 187.127 71.486 187.326 71.8871C187.528 72.2848 187.808 72.5881 188.166 72.7969C188.524 73.0024 188.94 73.1051 189.414 73.1051C189.722 73.1051 190.001 73.062 190.249 72.9759C190.501 72.8864 190.718 72.7538 190.901 72.5781C191.083 72.3991 191.224 72.1771 191.323 71.9119L192.457 72.2301C192.338 72.6146 192.137 72.9527 191.855 73.2443C191.574 73.5327 191.226 73.758 190.811 73.9205C190.397 74.0795 189.931 74.1591 189.414 74.1591ZM197.244 74.1591C196.608 74.1591 196.046 73.9983 195.559 73.6768C195.072 73.352 194.691 72.8946 194.416 72.3047C194.141 71.7114 194.003 71.0104 194.003 70.2017C194.003 69.3996 194.141 68.7036 194.416 68.1136C194.691 67.5237 195.074 67.0679 195.564 66.7464C196.055 66.425 196.621 66.2642 197.264 66.2642C197.762 66.2642 198.154 66.3471 198.443 66.5128C198.734 66.6752 198.956 66.8608 199.109 67.0696C199.265 67.2751 199.386 67.4441 199.472 67.5767H199.571V63.8182H200.744V74H199.611V72.8267H199.472C199.386 72.9659 199.263 73.1416 199.104 73.3537C198.945 73.5625 198.718 73.7498 198.423 73.9155C198.128 74.0779 197.735 74.1591 197.244 74.1591ZM197.404 73.1051C197.874 73.1051 198.272 72.9825 198.597 72.7372C198.922 72.4886 199.169 72.1456 199.338 71.7081C199.507 71.2673 199.591 70.7585 199.591 70.1818C199.591 69.6117 199.508 69.1129 199.343 68.6854C199.177 68.2545 198.932 67.9197 198.607 67.6811C198.282 67.4392 197.881 67.3182 197.404 67.3182C196.906 67.3182 196.492 67.4458 196.161 67.701C195.833 67.9529 195.586 68.2959 195.42 68.7301C195.258 69.161 195.176 69.6449 195.176 70.1818C195.176 70.7254 195.259 71.2192 195.425 71.6634C195.594 72.1042 195.843 72.4555 196.171 72.7173C196.502 72.9759 196.913 73.1051 197.404 73.1051ZM207.153 74V63.8182H208.326V67.5767H208.426C208.512 67.4441 208.631 67.2751 208.784 67.0696C208.939 66.8608 209.161 66.6752 209.45 66.5128C209.741 66.3471 210.136 66.2642 210.633 66.2642C211.276 66.2642 211.843 66.425 212.333 66.7464C212.824 67.0679 213.207 67.5237 213.482 68.1136C213.757 68.7036 213.894 69.3996 213.894 70.2017C213.894 71.0104 213.757 71.7114 213.482 72.3047C213.207 72.8946 212.825 73.352 212.338 73.6768C211.851 73.9983 211.289 74.1591 210.653 74.1591C210.162 74.1591 209.77 74.0779 209.475 73.9155C209.18 73.7498 208.953 73.5625 208.794 73.3537C208.634 73.1416 208.512 72.9659 208.426 72.8267H208.286V74H207.153ZM208.306 70.1818C208.306 70.7585 208.391 71.2673 208.56 71.7081C208.729 72.1456 208.976 72.4886 209.301 72.7372C209.625 72.9825 210.023 73.1051 210.494 73.1051C210.984 73.1051 211.394 72.9759 211.722 72.7173C212.053 72.4555 212.302 72.1042 212.468 71.6634C212.637 71.2192 212.721 70.7254 212.721 70.1818C212.721 69.6449 212.638 69.161 212.472 68.7301C212.31 68.2959 212.063 67.9529 211.732 67.701C211.404 67.4458 210.991 67.3182 210.494 67.3182C210.017 67.3182 209.615 67.4392 209.291 67.6811C208.966 67.9197 208.721 68.2545 208.555 68.6854C208.389 69.1129 208.306 69.6117 208.306 70.1818ZM216.171 76.8636C215.972 76.8636 215.795 76.8471 215.639 76.8139C215.484 76.7841 215.376 76.7543 215.316 76.7244L215.615 75.6903C215.9 75.7633 216.151 75.7898 216.37 75.7699C216.589 75.75 216.783 75.6522 216.952 75.4766C217.124 75.3042 217.282 75.0241 217.424 74.6364L217.643 74.0398L214.819 66.3636H216.092L218.2 72.4489H218.279L220.387 66.3636H221.66L218.419 75.1136C218.273 75.508 218.092 75.8345 217.877 76.093C217.661 76.3549 217.411 76.5488 217.126 76.6747C216.844 76.8007 216.526 76.8636 216.171 76.8636Z" fill="#94A3B8"/>
<path d="M238.472 66.5625C238.419 66.0663 238.195 65.6799 237.801 65.4034C237.411 65.1269 236.903 64.9886 236.278 64.9886C235.839 64.9886 235.462 65.0549 235.148 65.1875C234.833 65.3201 234.593 65.5 234.426 65.7273C234.259 65.9545 234.174 66.214 234.17 66.5057C234.17 66.7481 234.225 66.9583 234.335 67.1364C234.449 67.3144 234.602 67.4659 234.795 67.5909C234.989 67.7121 235.203 67.8144 235.438 67.8977C235.672 67.9811 235.909 68.0511 236.148 68.108L237.239 68.3807C237.678 68.483 238.1 68.6212 238.506 68.7955C238.915 68.9697 239.28 69.1894 239.602 69.4545C239.928 69.7197 240.186 70.0398 240.375 70.4148C240.564 70.7898 240.659 71.2292 240.659 71.733C240.659 72.4148 240.485 73.0152 240.136 73.5341C239.788 74.0492 239.284 74.4527 238.625 74.7443C237.97 75.0322 237.176 75.1761 236.244 75.1761C235.339 75.1761 234.553 75.036 233.886 74.7557C233.223 74.4754 232.705 74.0663 232.33 73.5284C231.958 72.9905 231.758 72.3352 231.727 71.5625H233.801C233.831 71.9678 233.956 72.3049 234.176 72.5739C234.396 72.8428 234.682 73.0436 235.034 73.1761C235.39 73.3087 235.788 73.375 236.227 73.375C236.686 73.375 237.087 73.3068 237.432 73.1705C237.78 73.0303 238.053 72.8371 238.25 72.5909C238.447 72.3409 238.547 72.0492 238.551 71.7159C238.547 71.4129 238.458 71.1629 238.284 70.9659C238.11 70.7652 237.866 70.5985 237.551 70.4659C237.241 70.3295 236.877 70.2083 236.46 70.1023L235.136 69.7614C234.178 69.5152 233.42 69.142 232.864 68.642C232.311 68.1383 232.034 67.4697 232.034 66.6364C232.034 65.9508 232.22 65.3504 232.591 64.8352C232.966 64.3201 233.475 63.9205 234.119 63.6364C234.763 63.3485 235.492 63.2045 236.307 63.2045C237.133 63.2045 237.856 63.3485 238.477 63.6364C239.102 63.9205 239.593 64.3163 239.949 64.8239C240.305 65.3277 240.489 65.9072 240.5 66.5625H238.472ZM244.322 72.2614L244.317 69.7784H244.646L247.783 66.2727H250.186L246.328 70.5682H245.902L244.322 72.2614ZM242.447 75V63.3636H244.504V75H242.447ZM247.925 75L245.084 71.0284L246.47 69.5795L250.385 75H247.925ZM251.557 75V66.2727H253.614V75H251.557ZM252.591 65.0341C252.265 65.0341 251.985 64.9261 251.75 64.7102C251.515 64.4905 251.398 64.2273 251.398 63.9205C251.398 63.6098 251.515 63.3466 251.75 63.1307C251.985 62.911 252.265 62.8011 252.591 62.8011C252.92 62.8011 253.201 62.911 253.432 63.1307C253.667 63.3466 253.784 63.6098 253.784 63.9205C253.784 64.2273 253.667 64.4905 253.432 64.7102C253.201 64.9261 252.92 65.0341 252.591 65.0341ZM257.786 63.3636V75H255.729V63.3636H257.786ZM261.957 63.3636V75H259.901V63.3636H261.957ZM264.072 75V66.2727H266.129V75H264.072ZM265.107 65.0341C264.781 65.0341 264.5 64.9261 264.266 64.7102C264.031 64.4905 263.913 64.2273 263.913 63.9205C263.913 63.6098 264.031 63.3466 264.266 63.1307C264.5 62.911 264.781 62.8011 265.107 62.8011C265.436 62.8011 265.716 62.911 265.947 63.1307C266.182 63.3466 266.3 63.6098 266.3 63.9205C266.3 64.2273 266.182 64.4905 265.947 64.7102C265.716 64.9261 265.436 65.0341 265.107 65.0341ZM272.665 66.2727V67.8636H267.506V66.2727H272.665ZM268.795 75V65.4489C268.795 64.8617 268.917 64.3731 269.159 63.983C269.405 63.5928 269.735 63.3011 270.148 63.108C270.561 62.9148 271.019 62.8182 271.523 62.8182C271.879 62.8182 272.195 62.8466 272.472 62.9034C272.748 62.9602 272.953 63.0114 273.085 63.0568L272.676 64.6477C272.589 64.6212 272.479 64.5947 272.347 64.5682C272.214 64.5379 272.066 64.5227 271.903 64.5227C271.521 64.5227 271.25 64.6155 271.091 64.8011C270.936 64.983 270.858 65.2443 270.858 65.5852V75H268.795ZM275.554 78.2727C275.274 78.2727 275.014 78.25 274.776 78.2045C274.541 78.1629 274.353 78.1136 274.213 78.0568L274.69 76.4545C274.99 76.5417 275.257 76.5833 275.491 76.5795C275.726 76.5758 275.933 76.5019 276.111 76.358C276.293 76.2178 276.446 75.983 276.571 75.6534L276.747 75.1818L273.582 66.2727H275.764L277.776 72.8636H277.866L279.884 66.2727H282.071L278.577 76.0568C278.414 76.5189 278.198 76.9148 277.929 77.2443C277.66 77.5777 277.33 77.8314 276.94 78.0057C276.554 78.1837 276.092 78.2727 275.554 78.2727Z" fill="white"/>
</svg>
